# Exported from ProBuilder
# http://www.procore3d.com/probuilder
# 5/17/2018 8:27:33 AM

mtllib ./blacksmith.mtl
o blacksmith

g Out01BlackS02_W (1)
v 54.71608 8.131 -55.51188
v 52.34642 8.131 -57.17967
v 52.34642 7.971 -57.17967
v 54.71608 7.971 -55.51188
v 61.38229 7.971 -55.68161
v 61.95052 7.971 -53.72602
v 61.95052 8.131 -53.72602
v 61.38229 8.131 -55.68161
v 48.95509 7.971 -51.01035
v 52.34642 7.971 -57.17967
v 52.34642 8.131 -57.17967
v 48.95509 8.131 -51.01035
v 59.93098 7.971 -57.02715
v 61.38229 7.971 -55.68161
v 61.38229 8.131 -55.68161
v 59.93098 8.131 -57.02715
v 58.01721 7.971 -57.53143
v 59.93098 7.971 -57.02715
v 59.93098 8.131 -57.02715
v 58.01721 8.131 -57.53143
v 64.12421 7.971 -50.70531
v 60.73288 7.971 -44.536
v 60.73288 8.131 -44.536
v 64.12421 8.131 -50.70531
v 56.06162 7.971 -56.9632
v 58.01721 7.971 -57.53143
v 58.01721 8.131 -57.53143
v 56.06162 8.131 -56.9632
v 60.73288 7.971 -44.536
v 48.95509 7.971 -51.01035
v 48.95509 8.131 -51.01035
v 60.73288 8.131 -44.536
v 64.12421 8.131 -50.70531
v 61.44624 8.131 -51.81225
v 61.44624 7.971 -51.81225
v 64.12421 7.971 -50.70531
v 61.95052 7.971 -53.72602
v 61.44624 7.971 -51.81225
v 61.44624 8.131 -51.81225
v 61.95052 8.131 -53.72602
v 54.71608 7.971 -55.51188
v 56.06162 7.971 -56.9632
v 56.06162 8.131 -56.9632
v 54.71608 8.131 -55.51188
v 61.44624 5.411 -51.81225
v 62.56794 5.411 -51.19565
v 62.56794 7.971 -51.19565
v 61.44624 7.971 -51.81225
v 63.68964 5.411 -50.57904
v 63.07303 5.411 -49.45735
v 63.07303 7.971 -49.45735
v 63.68964 7.971 -50.57904
v 57.35304 5.411 -49.68038
v 58.14511 5.411 -49.79271
v 58.14511 7.971 -49.79271
v 57.35304 7.971 -49.68038
v 49.38966 5.411 -51.13663
v 50.00627 5.411 -52.25832
v 50.00627 7.971 -52.25832
v 49.38966 7.971 -51.13663
v 60.60661 5.411 -44.97057
v 59.48491 5.411 -45.58718
v 59.48491 7.971 -45.58718
v 60.60661 7.971 -44.97057
v 52.47269 5.411 -56.74509
v 53.59438 5.411 -56.12849
v 53.59438 7.971 -56.12849
v 52.47269 7.971 -56.74509
v 59.9031 7.971 -56.31216
v 61.38229 7.971 -55.68161
v 59.93098 7.971 -57.02715
v 59.34225 7.971 -56.62046
v 59.93098 7.971 -57.02715
v 58.01721 7.971 -57.53143
v 59.34225 7.971 -56.62046
v 59.9031 7.331 -56.31216
v 59.34225 7.331 -56.62046
v 59.34225 5.411 -56.62046
v 59.9031 5.411 -56.31216
v 56.06162 7.971 -56.9632
v 61.95052 7.971 -53.72602
v 59.5948 7.971 -55.7513
v 56.06162 7.971 -56.9632
v 59.5948 7.971 -55.7513
v 59.03395 7.971 -56.05961
v 59.03395 7.971 -56.05961
v 59.34225 7.971 -56.62046
v 58.01721 7.971 -57.53143
v 56.06162 7.971 -56.9632
v 59.5948 5.411 -55.7513
v 59.03395 5.411 -56.05961
v 59.03395 7.971 -56.05961
v 59.5948 7.971 -55.7513
v 59.5948 7.971 -55.7513
v 61.95052 7.971 -53.72602
v 61.38229 7.971 -55.68161
v 59.9031 7.971 -56.31216
v 60.1007 7.971 -50.36094
v 61.44624 7.971 -51.81225
v 61.95052 7.971 -53.72602
v 61.95052 7.971 -53.72602
v 58.14511 7.971 -49.79271
v 60.1007 7.971 -50.36094
v 56.06162 7.971 -56.9632
v 56.06162 7.971 -56.9632
v 57.35304 7.971 -49.68038
v 58.14511 7.971 -49.79271
v 56.23135 7.971 -50.29699
v 56.06162 7.971 -56.9632
v 55.10965 7.971 -50.91359
v 56.23135 7.971 -50.29699
v 56.06162 7.971 -56.9632
v 54.78003 7.971 -51.64252
v 55.10965 7.971 -50.91359
v 56.06162 7.971 -56.9632
v 54.21181 7.971 -53.59811
v 54.78003 7.971 -51.64252
v 54.71608 7.971 -55.51188
v 59.34225 7.971 -56.62046
v 59.03395 7.971 -56.05961
v 59.03395 5.411 -56.05961
v 59.34225 5.411 -56.62046
v 59.34225 5.411 -56.62046
v 59.34225 7.331 -56.62046
v 59.34225 7.971 -56.62046
v 59.9031 5.411 -56.31216
v 59.5948 5.411 -55.7513
v 59.5948 7.971 -55.7513
v 59.9031 7.971 -56.31216
v 59.9031 7.971 -56.31216
v 59.9031 7.331 -56.31216
v 59.9031 5.411 -56.31216
v 61.22322 5.411 -46.09227
v 60.60661 5.411 -44.97057
v 60.60661 7.971 -44.97057
v 61.22322 7.971 -46.09227
v 53.59438 5.411 -56.12849
v 54.71608 5.411 -55.51188
v 54.71608 7.971 -55.51188
v 53.59438 7.971 -56.12849
v 62.56794 5.411 -51.19565
v 63.68964 5.411 -50.57904
v 63.68964 7.971 -50.57904
v 62.56794 7.971 -51.19565
v 50.51136 5.411 -50.52002
v 49.38966 5.411 -51.13663
v 49.38966 7.971 -51.13663
v 50.51136 7.971 -50.52002
v 54.78003 5.411 -51.64252
v 55.10965 5.411 -50.91359
v 55.10965 7.971 -50.91359
v 54.78003 7.971 -51.64252
v 51.85608 5.411 -55.6234
v 52.47269 5.411 -56.74509
v 52.47269 7.971 -56.74509
v 51.85608 7.971 -55.6234
v 57.24153 5.411 -46.82039
v 56.11983 5.411 -47.437
v 56.11983 7.971 -47.437
v 57.24153 7.971 -46.82039
v 50.00627 5.411 -52.25832
v 51.85608 5.411 -55.6234
v 51.85608 7.971 -55.6234
v 50.00627 7.971 -52.25832
v 60.1007 5.411 -50.36094
v 61.44624 5.411 -51.81225
v 61.44624 7.971 -51.81225
v 60.1007 7.971 -50.36094
v 63.07303 5.411 -49.45735
v 61.22322 5.411 -46.09227
v 61.22322 7.971 -46.09227
v 63.07303 7.971 -49.45735
v 57.24153 7.971 -46.82039
v 59.48491 7.971 -45.58718
v 59.48491 5.411 -45.58718
v 57.24153 5.411 -46.82039
v 50.51136 7.971 -50.52002
v 56.11983 7.971 -47.437
v 56.11983 5.411 -47.437
v 50.51136 5.411 -50.52002
v 58.14511 5.411 -49.79271
v 60.1007 5.411 -50.36094
v 60.1007 7.971 -50.36094
v 58.14511 7.971 -49.79271
v 54.21181 5.411 -53.59811
v 54.78003 5.411 -51.64252
v 54.78003 7.971 -51.64252
v 54.21181 7.971 -53.59811
v 54.71608 5.411 -55.51188
v 54.21181 5.411 -53.59811
v 54.21181 7.971 -53.59811
v 54.71608 7.971 -55.51188
v 60.73288 8.131 -44.536
v 59.16185 9.250999 -48.3209
v 60.39506 9.250999 -50.56429
v 64.12421 8.131 -50.70531
v 58.01721 8.131 -57.53143
v 59.93098 8.131 -57.02715
v 54.22574 9.250999 -53.95562
v 48.95509 8.131 -51.01035
v 52.34642 8.131 -57.17967
v 54.22574 9.250999 -53.95562
v 52.99253 9.250999 -51.71223
v 64.12421 8.131 -50.70531
v 60.39506 9.250999 -50.56429
v 61.44624 8.131 -51.81225
v 54.22574 9.250999 -53.95562
v 59.93098 8.131 -57.02715
v 60.39506 9.250999 -50.56429
v 61.38229 8.131 -55.68161
v 54.22574 9.250999 -53.95562
v 60.39506 9.250999 -50.56429
v 59.16185 9.250999 -48.3209
v 52.99253 9.250999 -51.71223
v 61.95052 8.131 -53.72602
v 61.44624 8.131 -51.81225
v 60.39506 9.250999 -50.56429
v 54.71608 8.131 -55.51188
v 56.06162 8.131 -56.9632
v 54.22574 9.250999 -53.95562
v 61.38229 8.131 -55.68161
v 61.95052 8.131 -53.72602
v 60.39506 9.250999 -50.56429
v 60.73288 8.131 -44.536
v 48.95509 8.131 -51.01035
v 52.99253 9.250999 -51.71223
v 60.73288 8.131 -44.536
v 52.99253 9.250999 -51.71223
v 59.16185 9.250999 -48.3209
v 56.06162 8.131 -56.9632
v 52.34642 8.131 -57.17967
v 54.71608 8.131 -55.51188
v 54.22574 9.250999 -53.95562
v 63.68964 7.971 -50.57904
v 64.12421 7.971 -50.70531
v 61.44624 7.971 -51.81225
v 63.68964 7.971 -50.57904
v 61.44624 7.971 -51.81225
v 62.56794 7.971 -51.19565
v 64.12421 7.971 -50.70531
v 63.68964 7.971 -50.57904
v 60.60661 7.971 -44.97057
v 60.73288 7.971 -44.536
v 54.71608 7.971 -55.51188
v 52.34642 7.971 -57.17967
v 52.47269 7.971 -56.74509
v 54.71608 7.971 -55.51188
v 52.47269 7.971 -56.74509
v 53.59438 7.971 -56.12849
v 48.95509 7.971 -51.01035
v 49.38966 7.971 -51.13663
v 50.00627 7.971 -52.25832
v 50.00627 7.971 -52.25832
v 51.85608 7.971 -55.6234
v 48.95509 7.971 -51.01035
v 52.47269 7.971 -56.74509
v 52.47269 7.971 -56.74509
v 52.34642 7.971 -57.17967
v 48.95509 7.971 -51.01035
v 63.68964 7.971 -50.57904
v 61.22322 7.971 -46.09227
v 60.60661 7.971 -44.97057
v 63.68964 7.971 -50.57904
v 63.07303 7.971 -49.45735
v 61.22322 7.971 -46.09227
v 48.95509 7.971 -51.01035
v 60.73288 7.971 -44.536
v 60.60661 7.971 -44.97057
v 60.60661 7.971 -44.97057
v 59.48491 7.971 -45.58718
v 48.95509 7.971 -51.01035
v 57.24153 7.971 -46.82039
v 57.24153 7.971 -46.82039
v 56.11983 7.971 -47.437
v 48.95509 7.971 -51.01035
v 50.51136 7.971 -50.52002
v 50.51136 7.971 -50.52002
v 49.38966 7.971 -51.13663
v 48.95509 7.971 -51.01035
v 59.34225 7.331 -56.62046
v 59.9031 7.331 -56.31216
v 59.9031 7.971 -56.31216
v 59.34225 7.971 -56.62046
v 55.10965 5.411 -50.91359
v 56.23135 5.411 -50.29699
v 56.23135 7.971 -50.29699
v 55.10965 7.971 -50.91359
v 56.23135 5.411 -50.29699
v 57.35304 5.411 -49.68038
v 57.35304 7.971 -49.68038
v 56.23135 7.971 -50.29699

vn -0.1109023 0.3351492 -0.6381233
vn 0.2074832 0.5850904 -0.4849556
vn 0.5755502 0 -0.8177667
vn -0.07888645 0 -0.7488235
vn 0.8200817 0 -0.5061746
vn 0.9636387 0 -0.01211146
vn 0.7893115 0.3584288 0.01825063
vn 0.5399736 0.4706194 -0.3271797
vn -0.8763238 0 -0.4817227
vn -0.8763238 0 -0.4817227
vn -0.8763238 0 -0.4817227
vn -0.8763238 0 -0.4817227
vn 0.4673397 0 -0.850159
vn 0.8200817 0 -0.5061746
vn 0.5399736 0.4706194 -0.3271797
vn 0.2798465 0.4882842 -0.5173555
vn -0.01211262 0 -0.9636388
vn 0.4673397 0 -0.850159
vn 0.2798465 0.4882842 -0.5173555
vn -0.009748537 0.3175809 -0.7436717
vn 0.8763238 0 0.4817227
vn 0.8763238 0 0.4817227
vn 0.8763238 0 0.4817227
vn 0.8763238 0 0.4817227
vn -0.5061741 0 -0.8200822
vn -0.01211262 0 -0.9636388
vn -0.009748537 0.3175809 -0.7436717
vn -0.4383888 0.3584294 -0.6566287
vn -0.4817227 0 0.8763238
vn -0.4817227 0 0.8763238
vn -0.4817227 0 0.8763238
vn -0.4817227 0 0.8763238
vn 0.2982556 0.5850905 -0.4350573
vn 0.5981923 0.3351485 -0.2483261
vn 0.6744981 0 -0.3346795
vn 0.3820029 0 -0.9241613
vn 0.9636387 0 -0.01211146
vn 0.6744981 0 -0.3346795
vn 0.5981923 0.3351485 -0.2483261
vn 0.7893115 0.3584288 0.01825063
vn -0.07888645 0 -0.7488235
vn -0.5061741 0 -0.8200822
vn -0.4383888 0.3584294 -0.6566287
vn -0.1109023 0.3351492 -0.6381233
vn 0.4817227 0 -0.8763238
vn 0.4817227 0 -0.8763238
vn 0.4817227 0 -0.8763238
vn 0.4817227 0 -0.8763238
vn 0.8763238 0 0.4817227
vn 0.8763238 0 0.4817227
vn 0.8763238 0 0.4817227
vn 0.8763238 0 0.4817227
vn 0.1706552 0 -0.9332085
vn -0.2097187 0 -0.9751886
vn -0.2097187 0 -0.9751886
vn 0.1706552 0 -0.9332085
vn -0.8763238 0 -0.4817227
vn -0.8763238 0 -0.4817227
vn -0.8763238 0 -0.4817227
vn -0.8763238 0 -0.4817227
vn -0.4817227 0 0.8763238
vn -0.4817227 0 0.8763238
vn -0.4817227 0 0.8763238
vn -0.4817227 0 0.8763238
vn 0.4817227 0 -0.8763238
vn 0.4817227 0 -0.8763238
vn 0.4817227 0 -0.8763238
vn 0.4817227 0 -0.8763238
vn 0 -1 0
vn 0 -1 0
vn 0 -1 0
vn 0 -1 0
vn 0 -1 0
vn 0 -1 0
vn 0 -1 0
vn 0.4817227 0 -0.8763238
vn 0.4817227 0 -0.8763238
vn 0.4817227 0 -0.8763238
vn 0.4817227 0 -0.8763238
vn 0 -1 0
vn 0 -1 0
vn 0 -1 0
vn 0 -1 0
vn 0 -1 0
vn 0 -1 0
vn 0 -1 0
vn 0 -1 0
vn 0 -1 0
vn 0 -1 0
vn -0.4817227 0 0.8763238
vn -0.4817227 0 0.8763238
vn -0.4817227 0 0.8763238
vn -0.4817227 0 0.8763238
vn 0 -1 0
vn 0 -1 0
vn 0 -1 0
vn 0 -1 0
vn 0 -1 0
vn 0 -1 0
vn 0 -1 0
vn 0 -1 0
vn 0 -1 0
vn 0 -1 0
vn 0 -1 0
vn 0 -1 0
vn 0 -0.9999999 0
vn 0 -1 0
vn 0 -1 0
vn 0 -1 0
vn 0 -1 0
vn 0 -1 0
vn 0 -1 0
vn 0 -1 0
vn 0 -1 0
vn 0 -1 0
vn 0 -1 0
vn 0 -1 0
vn 0 -1 0
vn -0.8763238 0 -0.4817227
vn -0.8763238 0 -0.4817227
vn -0.8763238 0 -0.4817227
vn -0.8763238 0 -0.4817227
vn 0 0 0
vn 0 0 0
vn 0 0 0
vn 0.8763238 0 0.4817227
vn 0.8763238 0 0.4817227
vn 0.8763238 0 0.4817227
vn 0.8763238 0 0.4817227
vn 0 0 0
vn 0 0 0
vn 0 0 0
vn 0.8763238 0 0.4817227
vn 0.8763238 0 0.4817227
vn 0.8763238 0 0.4817227
vn 0.8763238 0 0.4817227
vn 0.4817227 0 -0.8763238
vn 0.4817227 0 -0.8763238
vn 0.4817227 0 -0.8763238
vn 0.4817227 0 -0.8763238
vn 0.4817227 0 -0.8763238
vn 0.4817227 0 -0.8763238
vn 0.4817227 0 -0.8763238
vn 0.4817227 0 -0.8763238
vn -0.4817227 0 0.8763238
vn -0.4817227 0 0.8763238
vn -0.4817227 0 0.8763238
vn -0.4817227 0 0.8763238
vn 0.9357274 0 -0.345527
vn 0.6964468 0 -0.6441764
vn 0.6964468 0 -0.6441764
vn 0.9357274 0 -0.345527
vn -0.8763238 0 -0.4817227
vn -0.8763238 0 -0.4817227
vn -0.8763238 0 -0.4817227
vn -0.8763238 0 -0.4817227
vn -0.4817227 0 0.8763238
vn -0.4817227 0 0.8763238
vn -0.4817227 0 0.8763238
vn -0.4817227 0 0.8763238
vn -0.8763238 0 -0.4817227
vn -0.8763238 0 -0.4817227
vn -0.8763238 0 -0.4817227
vn -0.8763238 0 -0.4817227
vn -0.5061752 0 -0.8200809
vn -0.7333254 0 -0.6798781
vn -0.7333254 0 -0.6798781
vn -0.5061752 0 -0.8200809
vn 0.8763238 0 0.4817227
vn 0.8763238 0 0.4817227
vn 0.8763238 0 0.4817227
vn 0.8763238 0 0.4817227
vn -0.4817227 0 0.8763238
vn -0.4817227 0 0.8763238
vn -0.4817227 0 0.8763238
vn -0.4817227 0 0.8763238
vn -0.4817227 0 0.8763238
vn -0.4817227 0 0.8763238
vn -0.4817227 0 0.8763238
vn -0.4817227 0 0.8763238
vn -0.2097187 0 -0.9751886
vn -0.5061752 0 -0.8200809
vn -0.5061752 0 -0.8200809
vn -0.2097187 0 -0.9751886
vn 0.9636391 0 -0.01211352
vn 0.9357274 0 -0.345527
vn 0.9357274 0 -0.345527
vn 0.9636391 0 -0.01211352
vn 0.9669943 0 0.2547981
vn 0.9636391 0 -0.01211352
vn 0.9636391 0 -0.01211352
vn 0.9669943 0 0.2547981
vn -0.0322246 0.925391 0.2872106
vn 0.03213662 0.9533386 0.1701282
vn 0.3081395 0.860738 -0.07946745
vn 0.2982556 0.5850905 -0.4350573
vn -0.009748537 0.3175809 -0.7436717
vn 0.2798465 0.4882842 -0.5173555
vn -0.07834765 0.8691902 -0.282519
vn -0.2412889 0.9300077 0.09605496
vn 0.2074832 0.5850904 -0.4849556
vn -0.07834765 0.8691902 -0.282519
vn -0.1689154 0.9440432 0.1358393
vn 0.2982556 0.5850905 -0.4350573
vn 0.3081395 0.860738 -0.07946745
vn 0.5981923 0.3351485 -0.2483261
vn -0.07834765 0.8691902 -0.282519
vn 0.2798465 0.4882842 -0.5173555
vn 0.3081395 0.860738 -0.07946745
vn 0.5399736 0.4706194 -0.3271797
vn -0.07834765 0.8691902 -0.282519
vn 0.3081395 0.860738 -0.07946745
vn 0.03213662 0.9533386 0.1701282
vn -0.1689154 0.9440432 0.1358393
vn 0.7893115 0.3584288 0.01825063
vn 0.5981923 0.3351485 -0.2483261
vn 0.3081395 0.860738 -0.07946745
vn -0.1109023 0.3351492 -0.6381233
vn -0.4383888 0.3584294 -0.6566287
vn -0.07834765 0.8691902 -0.282519
vn 0.5399736 0.4706194 -0.3271797
vn 0.7893115 0.3584288 0.01825063
vn 0.3081395 0.860738 -0.07946745
vn -0.0322246 0.925391 0.2872106
vn -0.2412889 0.9300077 0.09605496
vn -0.1689154 0.9440432 0.1358393
vn -0.0322246 0.925391 0.2872106
vn -0.1689154 0.9440432 0.1358393
vn 0.03213662 0.9533386 0.1701282
vn -0.4383888 0.3584294 -0.6566287
vn 0.2074832 0.5850904 -0.4849556
vn -0.1109023 0.3351492 -0.6381233
vn -0.07834765 0.8691902 -0.282519
vn 0 -0.4 0
vn 0 -1 0
vn 0 -0.5 0
vn 0 -0.4 0
vn 0 -0.5 0
vn 0 0 0
vn 0 -1 0
vn 0 -0.4 0
vn 0 -0.75 0
vn 0 -1 0
vn 0 -0.5 0
vn 0 -1 0
vn 0 -0.75 0
vn 0 -0.5 0
vn 0 -0.75 0
vn 0 0 0
vn 0 -1 0
vn 0 -1 0
vn 0 -1 0
vn 0 -1 0
vn 0 0 0
vn 0 -1 0
vn 0 -0.75 0
vn 0 -0.75 0
vn 0 -1 0
vn 0 -1 0
vn 0 -0.4 0
vn 0 0 0
vn 0 -0.75 0
vn 0 -0.4 0
vn 0 0 0
vn 0 0 0
vn 0 -1 0
vn 0 -1 0
vn 0 -0.75 0
vn 0 -0.75 0
vn 0 0 0
vn 0 -1 0
vn 0 -1 0
vn 0 -1 0
vn 0 0 0
vn 0 -1 0
vn 0 -1 0
vn 0 -1 0
vn 0 -1 0
vn 0 -1 0
vn 0.4817227 0 -0.8763238
vn 0.4817227 0 -0.8763238
vn 0.4817227 0 -0.8763238
vn 0.4817227 0 -0.8763238
vn 0.6964468 0 -0.6441764
vn 0.4817227 0 -0.8763238
vn 0.4817227 0 -0.8763238
vn 0.6964468 0 -0.6441764
vn 0.4817227 0 -0.8763238
vn 0.1706552 0 -0.9332085
vn 0.1706552 0 -0.9332085
vn 0.4817227 0 -0.8763238

vt 0 0
vt 2.26384 0
vt 2.26384 -1
vt 0 -1
vt 1.590992 -1
vt 0 -1
vt 0 0
vt 1.590992 0
vt 5.5 -1
vt 0 -1
vt 0 0
vt 5.5 0
vt 1.54616 -1
vt 0 -1
vt 0 0
vt 1.54616 0
vt 1.54616 -1
vt 0 -1
vt 0 0
vt 1.54616 0
vt 5.5 -1
vt 0 -1
vt 0 0
vt 5.5 0
vt 1.590992 -1
vt 0 -1
vt 0 0
vt 1.590992 0
vt 10.5 -1
vt 0 -1
vt 0 0
vt 10.5 0
vt 0 0
vt 2.26384 0
vt 2.26384 -1
vt 0 -1
vt 1.54616 -1
vt 0 -1
vt 0 0
vt 1.54616 0
vt 1.54616 -1
vt 0 -1
vt 0 0
vt 1.54616 0
vt 1 -1
vt 0 -1
vt 0 0
vt 1 0
vt 1 -1
vt 0 -1
vt 0 0
vt 1 0
vt 0.6250038 -1
vt 0 -1
vt 0 0
vt 0.6250038 0
vt 1 -1
vt 0 -1
vt 0 0
vt 1 0
vt 1 -1
vt 0 -1
vt 0 0
vt 1 0
vt 1 -1
vt 0 -1
vt 0 0
vt 1 0
vt 2 -2.5
vt 1.5 0
vt 0 -3
vt 2 -3.5
vt 0 -3
vt 1.5 -6
vt 2 -3.5
vt 0 0
vt 2 0
vt 2 -3
vt 0 -3
vt 2 -10.5
vt 2 0
vt 0 -4.75
vt 2 -10.5
vt 0 -4.75
vt 0 -5.75
vt 2.5 0
vt 0.5 0
vt 0 -2.5
vt 4.5 -4.75
vt 2 -4
vt 0 -4
vt 0 0
vt 2 0
vt 2.5 -4.75
vt 4.5 0
vt 0 -2.25
vt 0.5 -4.75
vt 12 -0.75
vt 6 0
vt 0 -0.75
vt 0 -0.75
vt 16.5 -3
vt 12 -0.75
vt 0 -11.25
vt 0 -11.25
vt 18 -4
vt 16.5 -3
vt 18 -6
vt 0 -11.25
vt 18 -8
vt 18 -6
vt 0 -11.25
vt 16.5 -9
vt 18 -8
vt 0 -11.25
vt 12 -11.25
vt 16.5 -9
vt 6 -12
vt 0 0
vt 2 0
vt 2 -4
vt 0 -4
vt 0 -4
vt 0 -1
vt 0 0
vt 2 -4
vt 0 -4
vt 0 0
vt 2 0
vt 2 0
vt 2 -1
vt 2 -4
vt 1 -1
vt 0 -1
vt 0 0
vt 1 0
vt 1 -1
vt 0 -1
vt 0 0
vt 1 0
vt 1 -1
vt 0 -1
vt 0 0
vt 1 0
vt 1 -1
vt 0 -1
vt 0 0
vt 1 0
vt 0.6250038 -1
vt 0 -1
vt 0 0
vt 0.6250038 0
vt 1 -1
vt 0 -1
vt 0 0
vt 1 0
vt 1 -1
vt 0 -1
vt 0 0
vt 1 0
vt 3 -1
vt 0 -1
vt 0 0
vt 3 0
vt 1.54616 -1
vt 0 -1
vt 0 0
vt 1.54616 0
vt 3 -1
vt 0 -1
vt 0 0
vt 3 0
vt 0 0
vt 2 0
vt 2 -1
vt 0 -1
vt 0 0
vt 5 0
vt 5 -1
vt 0 -1
vt 1.590992 -1
vt 0 -1
vt 0 0
vt 1.590992 0
vt 1.590992 -1
vt 0 -1
vt 0 0
vt 1.590992 0
vt 1.54616 -1
vt 0 -1
vt 0 0
vt 1.54616 0
vt 5.5 0
vt 3.5 -2.5
vt 1.5 -2.5
vt 0 0
vt 0.375 -1.5
vt 0 0
vt 4.25 -2.75
vt 5.5 -2.5
vt 0 -2.5
vt 1.5 0
vt 3.5 0
vt 0 -0.875
vt 2.650345 0
vt 2.26384 -0.875
vt 4.25 -5.5
vt 0 -2.75
vt 4.25 0
vt 0.375 -1.25
vt 0 -5.5
vt 0 0
vt 2 0
vt 2 -5.5
vt 2.698198 -0.875
vt 1.152039 -0.875
vt 0 0
vt 1.54616 -0.875
vt 0 -0.875
vt 2.698198 0
vt 0 -1.25
vt 1.125 -0.125
vt 3.875 0
vt 2 0
vt 2 -10.5
vt 0 -8
vt 2 0
vt 0 -8
vt 0 -2.5
vt 1.125 -1.125
vt 2.650345 -0.875
vt 0.3865051 -0.875
vt 0 0
vt 0.5 -1
vt 0 0
vt 0.5 -9
vt 0.5 -1
vt 0.5 -9
vt 0.5 -5
vt 0 0
vt 0.5 -1
vt 10.5 -1
vt 11 0
vt 0.5 0
vt 0 -9
vt 0.5 -8
vt 0.5 0
vt 0.5 -8
vt 0.5 -4
vt 11 -1
vt 10.5 0
vt 8.5 0
vt 8.5 0
vt 2.5 0
vt 11 -1
vt 0.5 0
vt 0.5 0
vt 0 -1
vt 11 -1
vt 0.5 -1
vt 8.5 -1
vt 10.5 -1
vt 0.5 -1
vt 2.5 -1
vt 8.5 -1
vt 0.5 -42
vt 0.5 0
vt 0 -1
vt 0 -1
vt 0 -5
vt 0.5 -42
vt 0 -13
vt 0 -13
vt 0 -17
vt 0.5 -42
vt 0 -37
vt 0 -37
vt 0 -41
vt 0.5 -42
vt 1 -1
vt 0 -1
vt 0 0
vt 1 0
vt 1 -1
vt 0 -1
vt 0 0
vt 1 0
vt 1 -1
vt 0 -1
vt 0 0
vt 1 0

g Out01BlackS02_W (1)_0
usemtl t02a11b
f 4/4/4 3/3/3 2/2/2 1/1/1
f 8/8/8 7/7/7 6/6/6 5/5/5
f 12/12/12 11/11/11 10/10/10 9/9/9
f 16/16/16 15/15/15 14/14/14 13/13/13
f 20/20/20 19/19/19 18/18/18 17/17/17
f 24/24/24 23/23/23 22/22/22 21/21/21
f 28/28/28 27/27/27 26/26/26 25/25/25
f 32/32/32 31/31/31 30/30/30 29/29/29
f 36/36/36 35/35/35 34/34/34 33/33/33
f 40/40/40 39/39/39 38/38/38 37/37/37
f 44/44/44 43/43/43 42/42/42 41/41/41

g Out01BlackS02_W (1)_1
usemtl t02a06
f 48/48/48 47/47/47 46/46/46 45/45/45
f 52/52/52 51/51/51 50/50/50 49/49/49
f 56/56/56 55/55/55 54/54/54 53/53/53
f 60/60/60 59/59/59 58/58/58 57/57/57
f 64/64/64 63/63/63 62/62/62 61/61/61
f 68/68/68 67/67/67 66/66/66 65/65/65

g Out01BlackS02_W (1)_2
usemtl t05a10
f 72/72/72 71/71/71 70/70/70 69/69/69
f 79/79/79 78/78/78 77/77/77 76/76/76
f 89/89/89 88/88/88 87/87/87 86/86/86
f 93/93/93 92/92/92 91/91/91 90/90/90
f 97/97/97 96/96/96 95/95/95 94/94/94
f 104/104/104 101/101/101 103/103/103 102/102/102
f 108/108/108 105/105/105 107/107/107 106/106/106
f 118/118/118 115/115/115 117/117/117 116/116/116
f 122/122/122 121/121/121 120/120/120 119/119/119
f 129/129/129 128/128/128 127/127/127 126/126/126

g Out01BlackS02_W (1)_3
usemtl t02a07
f 136/136/136 135/135/135 134/134/134 133/133/133
f 140/140/140 139/139/139 138/138/138 137/137/137
f 144/144/144 143/143/143 142/142/142 141/141/141
f 148/148/148 147/147/147 146/146/146 145/145/145
f 152/152/152 151/151/151 150/150/150 149/149/149
f 156/156/156 155/155/155 154/154/154 153/153/153

g Out01BlackS02_W (1)_4
usemtl t02a12a
f 160/160/160 159/159/159 158/158/158 157/157/157

g Out01BlackS02_W (1)_5
usemtl t02a01
f 164/164/164 163/163/163 162/162/162 161/161/161
f 168/168/168 167/167/167 166/166/166 165/165/165
f 172/172/172 171/171/171 170/170/170 169/169/169
f 176/176/176 175/175/175 174/174/174 173/173/173
f 180/180/180 179/179/179 178/178/178 177/177/177
f 184/184/184 183/183/183 182/182/182 181/181/181
f 188/188/188 187/187/187 186/186/186 185/185/185
f 192/192/192 191/191/191 190/190/190 189/189/189

g Out01BlackS02_W (1)_6
usemtl t02a05
f 196/196/196 195/195/195 194/194/194 193/193/193
f 230/230/230 199/199/199 198/198/198 197/197/197
f 203/203/203 202/202/202 201/201/201 200/200/200
f 209/209/209 210/210/210 208/208/208 207/207/207
f 214/214/214 213/213/213 212/212/212 211/211/211

g Out01BlackS02_W (1)_7
usemtl t05a11
f 243/243/243 242/242/242 241/241/241 240/240/240
f 255/255/255 256/256/256 254/254/254 253/253/253
f 271/271/271 272/272/272 270/270/270 269/269/269
f 275/275/275 276/276/276 274/274/274 273/273/273

g Out01BlackS02_W (1)_8
usemtl sgweap
f 283/283/283 282/282/282 281/281/281 280/280/280

g Out01BlackS02_W (1)_9
usemtl t02a03b
f 287/287/287 286/286/286 285/285/285 284/284/284

g Out01BlackS02_W (1)_10
usemtl t02a03a
f 291/291/291 290/290/290 289/289/289 288/288/288

g Out01BlackS02_W (1)_11
usemtl t05a10
f 75/75/75 74/74/74 73/73/73
f 82/82/82 81/81/81 80/80/80
f 85/85/85 84/84/84 83/83/83
f 100/100/100 99/99/99 98/98/98
f 111/111/111 110/110/110 109/109/109
f 114/114/114 113/113/113 112/112/112
f 125/125/125 124/124/124 123/123/123
f 132/132/132 131/131/131 130/130/130

g Out01BlackS02_W (1)_12
usemtl t02a05
f 206/206/206 205/205/205 204/204/204
f 217/217/217 216/216/216 215/215/215
f 220/220/220 219/219/219 218/218/218
f 223/223/223 222/222/222 221/221/221
f 226/226/226 225/225/225 224/224/224
f 229/229/229 228/228/228 227/227/227
f 233/233/233 232/232/232 231/231/231

g Out01BlackS02_W (1)_13
usemtl t05a11
f 236/236/236 235/235/235 234/234/234
f 239/239/239 238/238/238 237/237/237
f 246/246/246 245/245/245 244/244/244
f 249/249/249 248/248/248 247/247/247
f 252/252/252 251/251/251 250/250/250
f 259/259/259 258/258/258 257/257/257
f 262/262/262 261/261/261 260/260/260
f 265/265/265 264/264/264 263/263/263
f 268/268/268 267/267/267 266/266/266
f 279/279/279 278/278/278 277/277/277

